<!-- Generator: Adobe Illustrator 22.0.0, SVG Export Plug-In  -->
<svg version="1.1"
	 xmlns="http://www.w3.org/2000/svg" xmlns:xlink="http://www.w3.org/1999/xlink" xmlns:a="http://ns.adobe.com/AdobeSVGViewerExtensions/3.0/"
	 x="0px" y="0px" width="212.9px" height="40.7px" viewBox="0 0 212.9 40.7" style="enable-background:new 0 0 212.9 40.7;"
	 xml:space="preserve">
<style type="text/css">
	.st0{opacity:0.5;}
	.st1{fill:#CC0099;}
</style>
<defs>
</defs>
<g class="st0">
	<path class="st1" d="M27.7,39.1c0,0.3-0.1,0.6-0.3,0.8c-0.2,0.2-0.5,0.3-0.8,0.3h-5.8c-0.6,0-1-0.3-1.2-0.8l-3-10.9H2.9L9.4,35
		l-1.2,4.4C8,40,7.6,40.3,7,40.3H1.2c-0.4,0-0.7-0.1-0.9-0.4c-0.2-0.3-0.3-0.6-0.2-1L10.3,1.3c0.1-0.3,0.2-0.5,0.4-0.6
		c0.2-0.2,0.5-0.2,0.7-0.2h4.7c0.3,0,0.5,0.1,0.7,0.2c0.2,0.2,0.4,0.4,0.4,0.6l10.3,37.4C27.7,38.8,27.7,38.9,27.7,39.1z M16,21.8
		l-2.1-7.5l-2.1,7.5H16z"/>
	<path class="st1" d="M50.8,19.2c0.8,1.1,1.4,2.4,1.8,3.7c0.4,1.3,0.6,2.6,0.6,4c0,1.9-0.4,3.6-1.1,5.2c-0.7,1.6-1.7,3-2.9,4.3
		c-1.2,1.2-2.7,2.2-4.3,2.9c-1.6,0.7-3.4,1.1-5.2,1.1h-8.7c-0.3,0-0.6-0.1-0.8-0.3c-0.2-0.2-0.3-0.5-0.3-0.8v-9.6l8.1-8v10.8h1.8
		c0.8,0,1.5-0.1,2.1-0.4c0.7-0.3,1.2-0.7,1.7-1.2c0.5-0.5,0.9-1.1,1.2-1.7c0.3-0.7,0.4-1.4,0.4-2.1c0-0.8-0.1-1.5-0.4-2.1
		c-0.3-0.7-0.7-1.2-1.2-1.7c-0.5-0.5-1.1-0.9-1.7-1.2c-0.7-0.3-1.4-0.4-2.1-0.4H38h-8.1V1.6c0-0.3,0.1-0.6,0.3-0.9
		c0.2-0.2,0.5-0.4,0.8-0.4h8.7c1.4,0,2.8,0.3,4.1,0.8c1.3,0.6,2.4,1.3,3.4,2.3c1,1,1.7,2.1,2.3,3.4c0.6,1.3,0.8,2.6,0.8,4.1
		c0,2.1-0.6,4-1.7,5.7C49.4,17.4,50.2,18.2,50.8,19.2z M41.5,12.7c0.5-0.5,0.7-1.1,0.7-1.8S42,9.6,41.5,9.2
		c-0.5-0.5-1.1-0.7-1.7-0.7H38v5h1.8C40.5,13.4,41,13.2,41.5,12.7z"/>
	<path class="st1" d="M90.5,14.9c0.4,1.7,0.6,3.5,0.6,5.4c0,2.8-0.5,5.4-1.4,7.9c-0.9,2.5-2.2,4.6-3.8,6.5c-1.6,1.8-3.5,3.3-5.7,4.4
		c-2.2,1.1-4.5,1.6-6.9,1.6c-2.5,0-4.8-0.5-6.9-1.6c-2.2-1.1-4.1-2.5-5.7-4.4c-1.6-1.8-2.9-4-3.8-6.5c-0.9-2.5-1.4-5.1-1.4-7.9
		c0-2.8,0.5-5.4,1.4-7.9C57.7,10,59,7.8,60.6,6c1.6-1.8,3.5-3.3,5.7-4.4C68.5,0.5,70.8,0,73.3,0c2.5,0,4.8,0.6,7.1,1.7v8.4h8.3
		C89.5,11.6,90.1,13.2,90.5,14.9z M73.3,32.7c1.3,0,2.6-0.3,3.8-1c1.2-0.7,2.2-1.5,3.1-2.7c0.9-1.1,1.6-2.4,2.1-3.9
		c0.5-1.5,0.8-3.1,0.8-4.8c0-1.7-0.3-3.3-0.8-4.8c-0.5-1.5-1.2-2.8-2.1-3.9c-0.9-1.1-1.9-2-3.1-2.6c-1.2-0.7-2.5-1-3.8-1
		c-1.3,0-2.6,0.3-3.8,1c-1.2,0.7-2.2,1.5-3.1,2.6c-0.9,1.1-1.6,2.4-2.1,3.9c-0.5,1.5-0.8,3.1-0.8,4.8c0,1.7,0.3,3.3,0.8,4.8
		c0.5,1.5,1.2,2.8,2.1,3.9s1.9,2,3.1,2.7C70.7,32.4,71.9,32.7,73.3,32.7z"/>
	<path class="st1" d="M119.4,0.8c0.2,0.2,0.3,0.5,0.3,0.9v25.9c0,1.8-0.3,3.5-1,5.1c-0.7,1.6-1.6,3-2.8,4.2
		c-1.2,1.2-2.6,2.2-4.2,2.8c-1.6,0.7-3.3,1-5.1,1c-1.8,0-3.6-0.3-5.2-1c-1.6-0.7-3-1.6-4.2-2.8c-1.2-1.2-2.1-2.6-2.8-4.2
		c-0.7-1.6-1.1-3.3-1.1-5.1V1.6c0-0.3,0.1-0.6,0.3-0.9c0.2-0.2,0.5-0.4,0.8-0.4h5.7c0.3,0,0.6,0.1,0.8,0.4s0.3,0.5,0.3,0.9v3
		l-5.9,5.9l5.9,5.9v11.1c0,0.7,0.1,1.4,0.4,2c0.3,0.6,0.7,1.2,1.1,1.6c0.5,0.5,1,0.9,1.6,1.1c0.6,0.3,1.3,0.4,2,0.4
		c0.7,0,1.4-0.1,2-0.4c0.6-0.3,1.2-0.7,1.6-1.1c0.5-0.5,0.8-1,1.1-1.6c0.3-0.6,0.4-1.3,0.4-2V1.6c0-0.3,0.1-0.6,0.3-0.9
		c0.2-0.2,0.5-0.4,0.8-0.4h5.7C118.9,0.4,119.2,0.5,119.4,0.8z"/>
	<path class="st1" d="M144.7,0.8c0.2,0.2,0.4,0.5,0.4,0.9v5.6c0,0.3-0.1,0.6-0.4,0.8c-0.2,0.2-0.5,0.3-0.9,0.3h-6.3v30.7
		c0,0.3-0.1,0.6-0.3,0.8c-0.2,0.2-0.5,0.3-0.8,0.3h-5.7c-0.3,0-0.6-0.1-0.8-0.3c-0.2-0.2-0.3-0.5-0.3-0.8V16.5l8.1-8h-8.4h-6
		c-0.3,0-0.6-0.1-0.9-0.3c-0.2-0.2-0.4-0.5-0.4-0.8V1.6c0-0.3,0.1-0.6,0.4-0.9c0.2-0.2,0.5-0.4,0.9-0.4h20.7
		C144.2,0.4,144.5,0.5,144.7,0.8z"/>
	<path class="st1" d="M189.3,4.5l-5.9,5.9l5.9,5.9v22.8c0,0.3-0.1,0.6-0.4,0.8c-0.2,0.2-0.5,0.3-0.9,0.3h-5.7
		c-0.3,0-0.6-0.1-0.8-0.3c-0.2-0.2-0.3-0.5-0.3-0.8v-9.8l-3.3,10.2c-0.1,0.3-0.2,0.5-0.4,0.6c-0.2,0.1-0.4,0.2-0.7,0.2h-4.9
		c-0.3,0-0.5-0.1-0.7-0.2c-0.2-0.1-0.4-0.3-0.4-0.6l-3.2-10.2v9.8c0,0.3-0.1,0.6-0.4,0.8c-0.2,0.2-0.5,0.3-0.9,0.3h-5.7
		c-0.3,0-0.6-0.1-0.8-0.3c-0.2-0.2-0.3-0.5-0.3-0.8V1.6c0-0.3,0.1-0.6,0.3-0.9c0.2-0.2,0.5-0.4,0.8-0.4h5.2c0.3,0,0.5,0.1,0.7,0.2
		c0.2,0.1,0.4,0.4,0.4,0.6l7.3,22.7l7.3-22.7c0.1-0.3,0.2-0.5,0.4-0.6c0.2-0.1,0.4-0.2,0.7-0.2h5.3c0.3,0,0.6,0.1,0.9,0.4
		s0.4,0.5,0.4,0.9V4.5z"/>
	<path class="st1" d="M199.5,8.4v5.4h8.9c0.3,0,0.6,0.1,0.8,0.3c0.2,0.2,0.3,0.5,0.3,0.8v5.7c0,0.3-0.1,0.6-0.3,0.8
		c-0.2,0.2-0.5,0.3-0.8,0.3h-8.9v2.4l-8.1,8V1.6c0-0.3,0.1-0.6,0.3-0.9c0.2-0.2,0.5-0.4,0.8-0.4h19.1c0.3,0,0.6,0.1,0.8,0.4
		c0.2,0.2,0.3,0.5,0.3,0.9v5.6c0,0.3-0.1,0.6-0.3,0.8c-0.2,0.2-0.5,0.3-0.8,0.3H199.5z M191.8,39.9c-0.2-0.2-0.3-0.5-0.3-0.8v-6.9
		h20.3c0.3,0,0.6,0.1,0.8,0.3c0.2,0.2,0.3,0.5,0.3,0.8v5.7c0,0.3-0.1,0.6-0.3,0.8c-0.2,0.2-0.5,0.3-0.8,0.3h-19.1
		C192.3,40.3,192,40.2,191.8,39.9z"/>
</g>
</svg>
