<!-- Generator: Adobe Illustrator 22.0.0, SVG Export Plug-In  -->
<svg version="1.1"
	 xmlns="http://www.w3.org/2000/svg" xmlns:xlink="http://www.w3.org/1999/xlink" xmlns:a="http://ns.adobe.com/AdobeSVGViewerExtensions/3.0/"
	 x="0px" y="0px" width="412.1px" height="365.9px" viewBox="0 0 412.1 365.9" style="enable-background:new 0 0 412.1 365.9;"
	 xml:space="preserve">
<style type="text/css">
	.st0{fill:#FFFFFF;stroke:#FFFFFF;stroke-width:0.25;stroke-miterlimit:10;}
</style>
<defs>
</defs>
<path class="st0" d="M256.1,365.6c10.9-9.4,26.6-21.3,35.3-25.7c10.4-5.2,21.6-9,31.3-15.3c4.4-2.9,8.1-6.3,10.8-10.3
	c1.3-1.4,2.9-2.5,4.6-3.5c4.6-2.7,9.7-4.4,14.5-6.7c4.8-2.3,9.4-5.5,12.2-10c-3.4,3.7-7.9,6.1-12.5,8.1s-9.4,3.6-13.8,6
	c-0.9,0.5-1.8,1-2.5,1.8c1.4-2.9,2.4-6,2.9-9.3c-1.4,6.3-6.6,11.5-12.2,15.1c-6.5,4-13.9,5.8-20.1,10.3c-0.3-7.6,0.7-15.3,2.9-22.6
	c3.1-10.5,8.7-20.2,14.3-29.7c11.2,3.2,24.6-2,30.1-12.3c0.9-1.6,1.5-3.3,2.3-4.9c-8-0.7-16.8-0.8-22.4,4.7
	c-1.7,1.7-2.9,3.7-4.4,5.4c-1,1.1-2,2-3.1,2.8c3.7-6.3,7.4-12.5,11.1-18.8c3.6-6,9.7-15.3,11.5-22c-6.4,12.9-14.4,25-23.8,35.9
	c-11.2,13.1-25.2,25.9-27.3,42.9c-0.7,5.4-0.1,11.1-1.6,16.3c-2.8,9.4-13.1,16-22.9,14.6c-0.9-7.1,0-14.5,2.6-21.2
	c3.4-9.1,9.9-18,7.9-27.5c-1-4.6-6.1-7.8-8.1-12c2.7,8.5,4.9,17.8,0.9,25.7c-1.4,2.7-3.5,5.1-5.3,7.5c-6.2,8.3-9.8,18.2-15.3,26.9
	c-6.2,9.8-15,18.2-25.7,22.9c-10.7,4.7-23.4,5.4-34.2,0.9c-13.6-5.7-23-19.4-24.9-33.8c-4.1-30.2,17.4-48.8,39.6-64.8
	c22.4-16.2,42.8-34.9,60.8-55.7c4.5-5.3,8.2-10.5,12.4-15.1c23.4-5.4,50.1-5.6,74-4.4l0.1-0.4c10.9,1.7,22.4,0.8,32.5-3.7
	c10.8-4.8,18-14.6,21.3-25.7c-2.8,1.8-6.4,1.6-9.8,1.3c-8.2-0.7-16.5-1.2-24.5,0.5s-12.3,8.6-19.4,12.7c-9.4,5.4-21,5.3-31.9,5.3
	c-9.8,0.1-19.9,0.6-29,4.1c-0.5,0.2-1,0.4-1.6,0.6l-0.3-0.4c10.9-14.6,25.4-26.6,41.9-34.7c4.3-2.1,8.7-3.9,12.6-6.6
	c10.7-7.4,15.9-20,20.6-32c-8.3,1.3-18.2,1.9-26,5c-4.7,1.8-9.3,7.1-12.4,11l-0.1-0.1c-7.1,14.1-18.3,25.8-29.3,37.3
	c-32.3,33.8-67.7,69.3-113.9,78.2c3.5-36.7,47.7-74.4,48.8-111.2c-6.3,23.2-44.1,25.7-51.1,48.7l-0.3-0.1c1.9-25.1,4-53.1,5.9-78.2
	c0.4-5,0.8-10,2.3-14.8c1.9-5.8,5.2-10.6,9.4-15c0.2,0.2,0.5,0.4,0.7,0.6c3.8,3,6.4,6,11.2,7.8c13.3,5,29.1,2.1,39.9-6.9l-0.9-1.4
	c-5.5-3.6-11.1-7.2-17.3-9.3s-13.3-2.6-19.3-0.1c-4,1.7-7.6,4.8-11.5,6.5c5.5-5.2,12.1-9.6,18.2-14.1c11.2-8.1,13.3-11.5,14.2-12.9
	c-7.6,5.1-16.4,8.8-24.8,12.5c-13.9,6.1-29.4,14.5-35,28.5c0.5-15.6,4.9-32.8,10.2-47.4c3-8.3,10.5-25.9,18.2-33.3
	c-18.5,14.2-26.5,32.6-32.1,55.8c-7.5,31.1-0.3,63.8-3.1,95.6c-1.7,19.8-10.1,36-15.2,54.4l-0.4-0.1c-2-9.3-15.4-27.5-33.1-40.5
	c3.5-4.3,9-7.7,10.6-12.8c0.8-2.5,0.7-5.2,0.5-7.8c-0.7-8.9-3-17.9-8.2-25.2c-4.1-5.7-9.4-12.2-10-19.1c-2,4.9-5,6.2-7.5,10.8
	c-5.3,10-2.5,22.3,2.2,32.5c2.9,6.4,6.5,12.7,9.2,19.2c-4.1-2.8-8.4-5.3-12.8-7.3c-6.1-2.8-11.2-5.2-17.1-8.3
	c-5.2-2.7-11.3-4.6-16.5-7.3c-5.8-3.1-12-6.3-18-8.9c-12.7-5.6-24.4-14-31.7-25.7c-7.3-11.5-9.8-26.3-4.9-38.9l-0.8-0.3
	c-6.4,2.1-7.6,10.6-6.7,17.2c2.7,18.6,14.3,35.3,30.1,46c-0.7-0.3-1.5-0.7-2.3-1c-6-2.5-12.7-3.8-19-2.4c-8.3,1.9-14.8,8-20.5,14.2
	c7.4-0.2,11.4,7.7,18.2,10.6c6.7,2.9,14.5,3.2,21.5,0.9c6.8-2.3,14-7.9,17.6-14.1c4.2,1.9,8.2,3.8,12.8,5.5
	c14.5,5.3,28,12.9,41.1,21c17.2,10.6,35.9,29.1,44.5,47.2c-4.3,18.5-3.8,37.7-9.4,56.4c-10.8,36.4-26.8,78.3-59.5,98.1h169V365.6z
	 M348.1,260.4c-0.8,1-1.2,2-1.9,3.1c-0.5,0.8-1.3,1.5-2,2.1c-0.8,0.7-1.6,1.4-2.6,1.9c-1.8,1.1-3.9,1.6-5.9,1.4
	c-0.9-0.1-2-0.7-2.3-1.5C337,263.2,342.5,260.6,348.1,260.4z M399.7,166.4c-8.9,11.7-23.7,16-38.2,12.9
	C370.5,168.5,385.9,163.2,399.7,166.4z M357.9,117.9c-2,9.9-5,17.4-15.1,19.4c-3.3,0.7-6.8-0.4-8.3-3.3
	C340.4,126.6,348.6,120.8,357.9,117.9z M229.1,65.7c3.9-0.4,8,0.6,10.8,3.2c-7.1,5.3-15.3,6.1-21.9,0.2
	C221.5,67.6,225.2,66.1,229.1,65.7z M39,142.3c-3.4,0.6-6.8-0.2-10.1-1.1c-1-0.3-1.9-0.5-2.8-1c-2.6-1.1-4.9-3.3-7.7-3h-0.7
	c6.3-5.6,15.8-7.4,23.7-4.4l-0.1,0.2c1.3,0.9,3.7,2.1,5,3C45.7,139.3,42.4,141.7,39,142.3z M114.9,144.1c-0.8-1.5-1.1-3.3-1.3-5
	c-0.7-6.8,0.4-13.7,3.1-19.9c2.3,5.3,8.2,8.5,10.2,13.9c1,2.7,1.1,5.7,1.2,8.6c0.1,3.9-3,7-2.9,10.9
	C121.9,149.5,117,148,114.9,144.1z"/>
</svg>
