<!-- Generator: Adobe Illustrator 22.0.0, SVG Export Plug-In  -->
<svg version="1.1"
	 xmlns="http://www.w3.org/2000/svg" xmlns:xlink="http://www.w3.org/1999/xlink" xmlns:a="http://ns.adobe.com/AdobeSVGViewerExtensions/3.0/"
	 x="0px" y="0px" width="809px" height="238.5px" viewBox="0 0 809 238.5" style="enable-background:new 0 0 809 238.5;"
	 xml:space="preserve">
<style type="text/css">
	.st0{fill:#FFFFFF;}
</style>
<defs>
</defs>
<g>
	<path class="st0" d="M206.2,229.4c5.8-5.9,14.2-13.3,18.8-16.1c5.5-3.3,11.5-5.6,16.7-9.6c2.4-1.8,4.3-3.9,5.8-6.4
		c0.7-0.9,1.6-1.6,2.5-2.2c2.5-1.7,5.2-2.7,7.7-4.2c2.6-1.5,5-3.5,6.5-6.3c-1.8,2.3-4.2,3.8-6.7,5.1c-2.4,1.3-5,2.3-7.3,3.8
		c-0.5,0.3-1,0.6-1.3,1.1c0.7-1.8,1.3-3.8,1.5-5.9c-0.7,3.9-3.5,7.2-6.5,9.4c-3.4,2.5-7.4,3.6-10.7,6.4c-0.1-4.8,0.4-9.6,1.5-14.2
		c1.7-6.6,4.6-12.7,7.6-18.6c6,2,13.1-1.3,16-7.7c0.5-1,0.8-2,1.2-3.1c-4.3-0.5-8.9-0.5-11.9,3c-0.9,1-1.5,2.3-2.4,3.4
		c-0.5,0.7-1.1,1.3-1.7,1.8c2-3.9,4-7.9,5.9-11.8c1.9-3.8,5.2-9.6,6.1-13.8c-3.4,8.1-7.7,15.7-12.7,22.5c-6,8.2-13.4,16.2-14.5,26.9
		c-0.4,3.4,0,7-0.9,10.3c-1.5,5.9-7,10-12.2,9.1c-0.5-4.5,0-9.1,1.4-13.3c1.8-5.7,5.3-11.3,4.2-17.3c-0.5-2.9-3.3-4.9-4.3-7.6
		c1.4,5.3,2.6,11.2,0.5,16.1c-0.7,1.7-1.8,3.2-2.8,4.7c-3.3,5.2-5.2,11.4-8.2,16.9c-3.3,6.1-8,11.4-13.7,14.3
		c-5.7,2.9-12.5,3.4-18.2,0.6c-7.3-3.6-12.2-12.2-13.3-21.2c-2.2-18.9,9.3-30.6,21.1-40.6c11.9-10.1,22.8-21.9,32.4-34.9
		c2.4-3.3,4.4-6.6,6.6-9.5c12.5-3.4,26.7-3.5,39.4-2.8l0-0.2c5.8,1.1,11.9,0.5,17.3-2.3c5.7-3,9.6-9.1,11.4-16.1
		c-1.5,1.2-3.4,1-5.2,0.8c-4.4-0.4-8.8-0.8-13.1,0.3c-4.3,1-6.6,5.4-10.3,8c-5,3.4-11.2,3.3-17,3.4c-5.2,0.1-10.6,0.4-15.4,2.5
		c-0.3,0.1-0.6,0.3-0.8,0.4l-0.1-0.3c5.8-9.2,13.6-16.7,22.3-21.7c2.3-1.3,4.6-2.4,6.7-4.1c5.7-4.6,8.5-12.6,11-20.1
		c-4.4,0.8-9.7,1.2-13.9,3.1c-2.5,1.2-5,4.5-6.6,6.9l-0.1,0c-3.8,8.9-9.7,16.2-15.6,23.4c-17.2,21.2-36.1,43.5-60.7,49
		c1.9-23.1,25.4-46.7,26-69.8c-3.3,14.6-23.5,16.1-27.2,30.6l-0.1-0.1c1-15.7,2.1-33.3,3.1-49c0.2-3.1,0.4-6.3,1.2-9.3
		c1-3.6,2.8-6.7,5-9.4c0.1,0.1,0.3,0.2,0.4,0.4c2,1.9,3.4,3.7,6,4.9c7.1,3.1,15.5,1.3,21.3-4.3l-0.5-0.9c-2.9-2.2-5.9-4.5-9.2-5.8
		c-3.3-1.3-7.1-1.7-10.3,0c-2.1,1.1-4,3-6.2,4.1c3-3.2,6.4-6,9.7-8.8c6-5.1,7.1-7.2,7.6-8.1c-4,3.2-8.7,5.5-13.2,7.8
		c-7.4,3.8-15.6,9.1-18.6,17.9c0.3-9.8,2.6-20.6,5.5-29.8c1.6-5.2,5.6-16.2,9.7-20.9c-9.8,8.9-14.1,20.4-17.1,35
		c-4,19.5-0.1,40-1.6,60c-0.9,12.4-5.4,22.6-8.1,34.1l-0.2-0.1c-1-5.8-8.2-17.3-17.6-25.4c1.9-2.7,4.8-4.8,5.7-8
		c0.4-1.6,0.4-3.2,0.3-4.9c-0.4-5.6-1.6-11.2-4.4-15.8c-2.2-3.6-5-7.7-5.3-12c-1,3.1-2.7,3.9-4,6.8c-2.8,6.2-1.3,14,1.1,20.4
		c1.5,4,3.5,7.9,4.9,12c-2.2-1.8-4.5-3.3-6.8-4.6c-3.3-1.7-5.9-3.3-9.1-5.2c-2.8-1.7-6-2.9-8.8-4.6c-3.1-1.9-6.4-4-9.6-5.6
		c-6.8-3.5-13-8.8-16.9-16.1c-3.9-7.2-5.2-16.5-2.6-24.4l-0.4-0.2c-3.4,1.3-4.1,6.6-3.6,10.8c1.4,11.7,7.6,22.1,16,28.8
		c-0.4-0.2-0.8-0.4-1.2-0.6c-3.2-1.6-6.8-2.4-10.1-1.5c-4.4,1.2-7.9,5-10.9,8.9c4-0.1,6.1,4.8,9.7,6.7c3.6,1.8,7.8,2,11.4,0.5
		c3.6-1.4,7.5-5,9.4-8.8c2.3,1.2,4.4,2.4,6.8,3.4c7.7,3.3,14.9,8.1,21.9,13.2c9.1,6.7,19.1,18.2,23.7,29.6c-2.3,11.6-2,23.6-5,35.4
		c-5.7,22.8-14.3,49.1-31.7,61.5L0,230.3v8.2l809-0.3v-8.2L206.2,229.4z M255.2,163.4c-0.4,0.7-0.6,1.3-1,2
		c-0.3,0.5-0.7,0.9-1.1,1.3c-0.4,0.4-0.9,0.9-1.4,1.2c-0.9,0.7-2.1,1-3.2,0.9c-0.5,0-1-0.4-1.2-1
		C249.3,165.2,252.2,163.5,255.2,163.4z M282.7,104.5c-4.7,7.3-12.6,10-20.4,8.1C267.1,105.8,275.4,102.5,282.7,104.5z M260.4,74
		c-1.1,6.2-2.7,10.9-8,12.2c-1.7,0.4-3.6-0.2-4.4-2C251.1,79.5,255.5,75.9,260.4,74z M191.8,41.3c2.1-0.2,4.3,0.4,5.8,2
		c-3.8,3.3-8.2,3.8-11.7,0.1C187.8,42.4,189.8,41.5,191.8,41.3z M90.6,89.4c-1.8,0.4-3.6-0.1-5.4-0.7c-0.5-0.2-1-0.3-1.5-0.6
		c-1.4-0.7-2.6-2-4.1-1.9l-0.4,0c3.3-3.5,8.4-4.6,12.7-2.7l0,0.1c0.7,0.6,1.9,1.3,2.6,1.9C94.1,87.5,92.4,89,90.6,89.4z M131,90.5
		c-0.4-1-0.6-2-0.7-3.1c-0.4-4.2,0.2-8.6,1.7-12.5c1.2,3.3,4.4,5.3,5.5,8.7c0.6,1.7,0.6,3.6,0.6,5.4c0,2.4-1.6,4.4-1.5,6.8
		C134.7,93.9,132.1,92.9,131,90.5z M115.3,230.1l0-0.3l0.4,0C115.6,229.9,115.4,230,115.3,230.1z"/>
</g>
</svg>
