<!-- Generator: Adobe Illustrator 22.0.0, SVG Export Plug-In  -->
<svg version="1.1"
	 xmlns="http://www.w3.org/2000/svg" xmlns:xlink="http://www.w3.org/1999/xlink" xmlns:a="http://ns.adobe.com/AdobeSVGViewerExtensions/3.0/"
	 x="0px" y="0px" width="386px" height="368px" viewBox="0 0 386 368" style="overflow:scroll;enable-background:new 0 0 386 368;"
	 xml:space="preserve">
<style type="text/css">
	.st0{clip-path:url(#SVGID_2_);fill:#BA008E;}
	.st1{clip-path:url(#SVGID_2_);fill:#F0D5D1;}
	.st2{clip-path:url(#SVGID_2_);fill:#42210B;}
	.st3{clip-path:url(#SVGID_2_);fill:#FF7BAC;}
	.st4{clip-path:url(#SVGID_2_);fill:#742A8F;}
	.st5{clip-path:url(#SVGID_2_);fill:#E6B7AF;}
	.st6{clip-path:url(#SVGID_2_);fill:#FFFFFF;}
	.st7{clip-path:url(#SVGID_2_);fill:none;}
	.st8{clip-path:url(#SVGID_2_);}
	.st9{clip-path:url(#SVGID_4_);fill:url(#SVGID_5_);}
	.st10{clip-path:url(#SVGID_7_);fill:#FFFFFF;}
	.st11{clip-path:url(#SVGID_9_);fill:url(#SVGID_10_);}
	.st12{clip-path:url(#SVGID_12_);}
	.st13{fill:#42210B;}
	.st14{fill:#854F2E;}
	.st15{clip-path:url(#SVGID_14_);fill:#BA008E;}
	.st16{clip-path:url(#SVGID_14_);fill:#F0D5D1;}
	.st17{clip-path:url(#SVGID_14_);fill:#42210B;}
	.st18{clip-path:url(#SVGID_14_);fill:#FF7BAC;}
	.st19{clip-path:url(#SVGID_14_);fill:#742A8F;}
	.st20{clip-path:url(#SVGID_14_);fill:#E6B7AF;}
	.st21{clip-path:url(#SVGID_14_);fill:#FFFFFF;}
	.st22{clip-path:url(#SVGID_14_);fill:none;}
	.st23{clip-path:url(#SVGID_14_);}
	.st24{clip-path:url(#SVGID_16_);fill:url(#SVGID_17_);}
	.st25{clip-path:url(#SVGID_19_);fill:#FFFFFF;}
	.st26{clip-path:url(#SVGID_21_);fill:url(#SVGID_22_);}
	.st27{clip-path:url(#SVGID_24_);}
</style>
<defs>
</defs>
<g>
	<g>
		<defs>
			<polygon id="SVGID_1_" points="90.2,107.9 90.2,248 211.5,318 332.8,248 332.8,107.9 211.5,37.9 			"/>
		</defs>
		<clipPath id="SVGID_2_">
			<use xlink:href="#SVGID_1_"  style="overflow:visible;"/>
		</clipPath>
		<rect x="46" y="35" class="st0" width="320" height="314"/>
		<path class="st1" d="M158.7,169.7c-0.7-0.5-1.4-1-2.1-1.4c-0.5-0.3-1-0.5-1.5-0.7c-0.5-0.1-1.1-0.2-1.7-0.2
			c-4.1,0-7.4,3.3-7.4,7.4c0,4.1,3.3,7.4,7.4,7.4c4.1,0,7.4-3.3,7.4-7.4C160.8,172.8,160,171,158.7,169.7 M158.7,169.7
			c-0.7-0.5-1.4-1-2.1-1.4c-0.5-0.3-1-0.5-1.5-0.7c-0.5-0.1-1.1-0.2-1.7-0.2c-4.1,0-7.4,3.3-7.4,7.4c0,4.1,3.3,7.4,7.4,7.4
			c4.1,0,7.4-3.3,7.4-7.4C160.8,172.8,160,171,158.7,169.7 M270.9,166c-3.1-3.1-6.9-4.1-10.6-2.9c-4.1-41.3-13.5-49.4-35.3-58.9
			l-0.4-0.2l-0.3,0.3c-13.8,11.3-20,21.6-25,30c-5.9,9.8-9.8,16.2-21.9,18.4c-3.2,1.1-9.9,1.3-12.3,1.3c1.1-3.8,1.1-7.2,1.1-7.4
			v-1.2l-1,0.6c-7.6,4.3-18,3.3-21.4,2.8c3.7-5.2,6.1-11.1,6.2-11.4l1.2-3.1l-2.3,2.3c-6.7,6.7-18.4,13.1-22,10.7l-1-0.6l-1.4,27.6
			c-3.1,0.9-5.4,2.5-6.9,4.9c0,0,0,0,0,0.1c-0.4,0.7-0.8,1.4-1,2.2c-1.4,3.7-1.2,8.5,0.6,13.5c2,5.6,5.5,10.1,8.8,11.4
			c0.2,0.6,0.4,1.2,0.7,1.9c2.7,7.6,5.6,15.7,14.2,22.7c1.1,0.9,2.2,1.7,3.4,2.5c0,0,0,0,0,0c7.7,5.1,19.1,9.4,36.7,12v20.7
			c-4.8,6.6-9.9,15-7.3,17.6c0.4,0.4,1,0.7,2.1,0.7c3.4,0,11.4-3.5,31.9-18.9l0.3-0.2v-21.7c14.2-7.9,23.6-10.3,23.8-10.4
			c17.1-7.9,29.6-22.5,30-34.9c6.7-0.2,11.7-3.3,13.9-8.8C278.7,182.2,276.6,171.7,270.9,166 M162.1,176.8c0,5.9-4.8,10.8-10.8,10.8
			c-5.9,0-10.6-4.7-10.8-10.5l-2.7-0.2v-0.1l2.5-0.2c0.1-0.8,0.3-1.7,0.6-2.5c0-0.1,0.1-0.2,0.1-0.3c-0.4-0.4-0.8-0.7-1.2-0.9
			c-0.5-0.3-1.1-0.5-1.7-0.4c0.6-0.2,1.2-0.1,1.8,0.1c0.4,0.1,0.9,0.4,1.3,0.6c0.1-0.2,0.1-0.4,0.2-0.6c0.1-0.2,0.2-0.4,0.3-0.6
			c0,0,0,0,0,0c-0.3-0.3-0.7-0.6-1-0.8c-0.5-0.3-1.1-0.5-1.7-0.4c0.6-0.2,1.2-0.1,1.8,0.1c0.4,0.1,0.8,0.3,1.2,0.6
			c0.3-0.6,0.6-1.1,1-1.7c-0.3-0.3-0.6-0.6-0.9-0.9c-0.3-0.2-0.6-0.5-0.9-0.6c-0.4-0.2-0.7-0.3-1.1-0.3c0.4-0.1,0.8,0,1.2,0.1
			c0.4,0.1,0.7,0.3,1.1,0.5c0.4,0.2,0.7,0.5,1,0.7c0.2-0.3,0.4-0.5,0.7-0.8c-0.1-0.3-0.3-0.7-0.5-1c-0.2-0.3-0.4-0.6-0.7-0.9
			c-0.3-0.3-0.6-0.5-1-0.6c0.4,0,0.8,0.2,1.1,0.5c0.3,0.2,0.6,0.5,0.9,0.8c0.2,0.3,0.4,0.5,0.6,0.8c0.4-0.3,0.8-0.6,1.2-0.9
			c0-0.3-0.1-0.6-0.1-0.9c-0.1-0.3-0.1-0.6-0.3-0.9c-0.1-0.3-0.2-0.6-0.5-0.8c0.3,0.1,0.5,0.4,0.7,0.7c0.2,0.3,0.3,0.6,0.4,0.9
			c0.1,0.2,0.2,0.5,0.3,0.7c0.4-0.2,0.8-0.4,1.2-0.6c0-0.5,0-1-0.1-1.5c-0.1-0.6-0.4-1.1-0.8-1.5c0.5,0.3,0.9,0.8,1.1,1.4
			c0.2,0.4,0.3,0.9,0.4,1.4c0.4-0.1,0.8-0.3,1.2-0.3c0-0.5,0-1-0.1-1.5c-0.1-0.6-0.4-1.1-0.8-1.5c0.5,0.3,0.9,0.8,1.1,1.4
			c0.2,0.5,0.3,1,0.4,1.5c0.4-0.1,0.8-0.1,1.2-0.1c0-0.2,0-0.4-0.1-0.6c-0.1-0.6-0.3-1.3-0.8-1.7c0.6,0.3,0.9,1,1.1,1.6
			c0.1,0.2,0.1,0.4,0.2,0.6c2,0,4,0.5,5.8,1.4c0.1,0,0.1,0.1,0.2,0.1c2.2,1.7,3.6,3.3,4.8,5.7l-0.6,0.3c-0.1-0.1-0.1-0.2-0.2-0.4
			C161.9,174,162.1,175.3,162.1,176.8 M161.1,156.8c-3.3-1.5-6.9-2.4-10.5-2.1c-3.6,0.2-7.2,1.3-10.8,2.5c-3.6,1.2-7.1,2.8-10.7,4.1
			c3.1-2.3,6.4-4.4,9.9-6.1c3.5-1.6,7.3-2.9,11.4-3.2c1-0.1,2,0,3.1,0c1,0.1,2,0.2,3,0.5c1,0.3,2,0.6,2.9,1c0.5,0.2,0.9,0.4,1.4,0.6
			l1.3,0.7c3.4,2,6.3,4.8,8.8,7.7C167.7,160.5,164.5,158.3,161.1,156.8 M203.8,214.1c-5.6,13.1-10.6,19.4-15.4,19.4
			c-0.1,0-0.2,0-0.3,0c-4.3-0.3-8-5.8-11.1-16.8c0-0.1,0-0.2,0-0.3c0-0.2,0.1-0.4,0.2-0.6c0.8-1.1,3.9-1.2,11.3-1.2
			c5.6,0,12.5,0,14.4-1.3l1.9-1.3L203.8,214.1z M228.5,150.9c-3.7-0.9-7.5-1.5-11.2-1.2c-0.5,0-0.9,0-1.4,0.1l-1.4,0.2
			c-0.9,0.1-1.8,0.4-2.7,0.7c-0.4,0.1-0.9,0.3-1.3,0.5l-1.3,0.5c-0.8,0.4-1.6,0.9-2.4,1.4c-3.1,2.1-5.7,5-7.8,8.3
			c1.1-3.8,3.3-7.4,6.5-10c3.2-2.7,7.3-4.1,11.5-4.4c4.1-0.3,8.2,0.5,12,1.9c3.8,1.3,7.2,3.4,10.4,5.7
			C235.8,153.2,232.2,151.8,228.5,150.9 M156.6,168.2c-0.5-0.3-1-0.5-1.5-0.7c-0.5-0.1-1.1-0.2-1.7-0.2c-4.1,0-7.4,3.3-7.4,7.4
			c0,4.1,3.3,7.4,7.4,7.4c4.1,0,7.4-3.3,7.4-7.4c0-2-0.8-3.8-2.1-5.1C158.1,169.1,157.4,168.7,156.6,168.2"/>
		<path class="st2" d="M181,249.9v1.4c-1.9-0.6-3.9-1.2-5.9-1.8c-12.4-3.8-25.4-8.8-34.3-18.7c1.1,0.9,2.2,1.7,3.4,2.5c0,0,0,0,0,0
			c8.6,8,20.1,11.5,31.3,14.8C177.4,248.8,179.2,249.3,181,249.9"/>
		<path class="st2" d="M170.9,162.7c-3.2-2.1-6.4-4.3-9.7-5.9c-3.3-1.5-6.9-2.4-10.5-2.1c-3.6,0.2-7.2,1.3-10.8,2.5
			c-3.6,1.2-7.1,2.8-10.7,4.1c3.1-2.3,6.4-4.4,9.9-6.1c3.5-1.6,7.3-2.9,11.4-3.2c1-0.1,2,0,3.1,0c1,0.1,2,0.2,3,0.5
			c1,0.3,2,0.6,2.9,1c0.5,0.2,0.9,0.4,1.4,0.6l1.3,0.7C165.6,157,168.4,159.7,170.9,162.7"/>
		<path class="st2" d="M239.5,154.6c-3.7-1.3-7.3-2.8-11.1-3.7c-3.7-0.9-7.5-1.5-11.2-1.2c-0.5,0-0.9,0-1.4,0.1l-1.4,0.2
			c-0.9,0.1-1.8,0.4-2.7,0.7c-0.4,0.1-0.9,0.3-1.3,0.5l-1.3,0.5c-0.8,0.4-1.6,0.9-2.4,1.4c-3.1,2.1-5.7,5-7.8,8.3
			c1.1-3.8,3.3-7.4,6.5-10c3.2-2.7,7.4-4.1,11.5-4.4c4.1-0.3,8.2,0.5,12,1.9C232.9,150.2,236.3,152.3,239.5,154.6"/>
		<path class="st3" d="M202.8,213.2c-1.9,1.3-8.8,1.3-14.4,1.3c-7.4,0-10.5,0.1-11.3,1.2c-0.1,0.2-0.2,0.4-0.2,0.6
			c0,0.1,0,0.2,0,0.3c3.1,11.1,6.8,16.6,11.1,16.8c0.1,0,0.2,0,0.3,0c4.7,0,9.8-6.4,15.4-19.4l0.9-2.1L202.8,213.2z M195,227.5
			c-1.3-0.7-3.9-1.8-6.6-1.5c-1.8,0.2-3.7,1-5.2,2.4c-1.7-2.6-3.4-6.6-4.9-11.9c1-0.6,6.2-0.6,10.1-0.6c5.2,0,10.5,0,13.5-0.8
			C199.3,220.9,197,224.9,195,227.5"/>
		<path class="st0" d="M201.9,215c-2.6,5.9-4.9,9.8-6.9,12.4c-1.3-0.7-3.9-1.8-6.6-1.5c-1.8,0.2-3.7,1-5.2,2.4
			c-1.7-2.6-3.4-6.6-4.9-11.9c1-0.6,6.2-0.6,10.1-0.6C193.6,215.9,198.9,215.8,201.9,215"/>
		<path class="st2" d="M181,245.3v4.5c-1.8-0.6-3.6-1.1-5.5-1.7c-11.2-3.4-22.7-6.9-31.3-14.8C151.9,238.5,163.4,242.7,181,245.3"/>
		<path class="st4" d="M241.3,337.4c-0.1,0-0.1,0.1-0.2,0.1c-14.9,6.1-32.2,8.5-49.3,8.5c-0.2,0-0.5,0-0.7,0c-1.8,0-3.5,0-5.2-0.1
			c-15.9-0.7-31-4.4-44.8-10.4c-4.2-1.8-8.2-3.2-12.1-5.5c14.8-33.4,15-65,52-67.8v3.9c-4.8,6.7-9.9,15.1-7.3,17.7
			c0.4,0.4,1,0.7,2.1,0.7c3.4,0,11.4-3.5,31.9-19l0.3-0.2v-4.1c46.1,3.8,33.2,60.9,33.4,74.6C241.3,336,241.3,337.2,241.3,337.4"/>
		<path class="st5" d="M175.6,198.3c1.7,0.8,3.3,0.8,5,0.9c1.7,0,3.4-0.1,5.1-0.3c1.7-0.2,3.4-0.3,5.1-0.6c0.8-0.1,1.7-0.3,2.5-0.4
			c0.8-0.2,1.7-0.3,2.4-0.9c-0.1,0.5-0.4,0.9-0.8,1.2c-0.3,0.4-0.7,0.6-1.1,0.9c-0.8,0.5-1.7,0.9-2.5,1.3c-1.7,0.7-3.6,1.1-5.4,1.2
			c-1.8,0.2-3.7,0.1-5.6-0.3c-0.9-0.2-1.8-0.5-2.7-1C176.9,199.8,176,199.2,175.6,198.3"/>
		<path class="st6" d="M162.1,176.8c0,5.9-4.8,10.8-10.8,10.8c-5.9,0-10.6-4.7-10.8-10.5l0.2,0l0.1-0.2c0.6-2.2,1.4-4.5,2.8-6.3l0,0
			c0.1-0.1,0.1-0.1,0.2-0.2c0.1-0.1,0.1-0.2,0.2-0.3c0.1-0.1,0.2-0.3,0.4-0.4c0.2-0.2,0.3-0.3,0.5-0.5c0.4-0.4,0.8-0.7,1.2-0.9l0,0
			c0,0,0.1-0.1,0.1-0.1c1-0.6,2.2-1,3.5-1.2c0.4-0.1,0.8-0.1,1.2-0.1l0.5,0c1.2,0,2.4,0.3,3.6,0.7c-0.5-0.1-1.1-0.2-1.7-0.2
			c-4.1,0-7.4,3.3-7.4,7.4c0,4.1,3.3,7.4,7.4,7.4c4.1,0,7.4-3.3,7.4-7.4c0-2-0.8-3.8-2.1-5.1c1,0.8,1.9,1.9,2.6,3
			C161.9,174,162.1,175.3,162.1,176.8"/>
		<path class="st6" d="M160.8,174.8c0,4.1-3.3,7.4-7.4,7.4c-4.1,0-7.4-3.3-7.4-7.4c0-4.1,3.3-7.4,7.4-7.4c0.6,0,1.1,0.1,1.7,0.2
			c0.5,0.2,1,0.4,1.5,0.7c0.8,0.4,1.5,0.9,2.1,1.4C160,171,160.8,172.8,160.8,174.8"/>
		<path class="st7" d="M56,188c0,82.8,67.2,150,150,150s150-67.2,150-150S288.8,38,206,38S56,105.2,56,188"/>
		<g class="st8">
			<defs>
				<path id="SVGID_3_" d="M146,174.8c0,4.1,3.3,7.4,7.4,7.4c4.1,0,7.4-3.3,7.4-7.4c0-2-0.8-3.8-2.1-5.1c-0.7-0.5-1.4-1-2.1-1.4
					c-0.5-0.3-1-0.5-1.5-0.7c-0.5-0.1-1.1-0.2-1.7-0.2C149.3,167.4,146,170.7,146,174.8"/>
			</defs>
			<clipPath id="SVGID_4_">
				<use xlink:href="#SVGID_3_"  style="overflow:visible;"/>
			</clipPath>

				<linearGradient id="SVGID_5_" gradientUnits="userSpaceOnUse" x1="-462.609" y1="-140.149" x2="-461.6091" y2="-140.149" gradientTransform="matrix(14.8061 0 0 -14.8061 6995.4126 -1900.2794)">
				<stop  offset="0" style="stop-color:#CCE0F4"/>
				<stop  offset="6.407391e-02" style="stop-color:#C3DCF2"/>
				<stop  offset="0.1708" style="stop-color:#A9D2EE"/>
				<stop  offset="0.307" style="stop-color:#7FC2E7"/>
				<stop  offset="0.4657" style="stop-color:#46ACDE"/>
				<stop  offset="0.5674" style="stop-color:#1E9CD7"/>
				<stop  offset="0.8652" style="stop-color:#0075BE"/>
				<stop  offset="0.9944" style="stop-color:#005B97"/>
				<stop  offset="1" style="stop-color:#005B97"/>
			</linearGradient>
			<rect x="146" y="167.4" class="st9" width="14.8" height="14.8"/>
		</g>
		<g class="st8">
			<defs>
				<path id="SVGID_6_" d="M56,188c0,82.8,67.2,150,150,150s150-67.2,150-150S288.8,38,206,38S56,105.2,56,188"/>
			</defs>
			<clipPath id="SVGID_7_">
				<use xlink:href="#SVGID_6_"  style="overflow:visible;"/>
			</clipPath>
			<path class="st10" d="M230.7,172.3c0.4,5.9-4.1,11.1-10,11.4c-5.9,0.4-11.1-4.1-11.4-10c-0.4-5.9,4.1-11.1,10-11.4
				C225.2,161.8,230.3,166.3,230.7,172.3"/>
		</g>
		<g class="st8">
			<defs>
				<path id="SVGID_8_" d="M214.6,170.7c0,4.1,3.3,7.4,7.4,7.4c4.1,0,7.4-3.3,7.4-7.4c0-4.1-3.3-7.4-7.4-7.4
					C218,163.3,214.6,166.6,214.6,170.7"/>
			</defs>
			<clipPath id="SVGID_9_">
				<use xlink:href="#SVGID_8_"  style="overflow:visible;"/>
			</clipPath>

				<linearGradient id="SVGID_10_" gradientUnits="userSpaceOnUse" x1="-462.6091" y1="-140.149" x2="-461.6091" y2="-140.149" gradientTransform="matrix(14.8061 0 0 -14.8061 7064.0586 -1904.3175)">
				<stop  offset="0" style="stop-color:#CCE0F4"/>
				<stop  offset="6.407391e-02" style="stop-color:#C3DCF2"/>
				<stop  offset="0.1708" style="stop-color:#A9D2EE"/>
				<stop  offset="0.307" style="stop-color:#7FC2E7"/>
				<stop  offset="0.4657" style="stop-color:#46ACDE"/>
				<stop  offset="0.5674" style="stop-color:#1E9CD7"/>
				<stop  offset="0.8652" style="stop-color:#0075BE"/>
				<stop  offset="0.9944" style="stop-color:#005B97"/>
				<stop  offset="1" style="stop-color:#005B97"/>
			</linearGradient>
			<rect x="214.6" y="163.3" class="st11" width="14.8" height="14.8"/>
		</g>
		<g class="st8">
			<defs>
				<path id="SVGID_11_" d="M56,188c0,82.8,67.2,150,150,150s150-67.2,150-150S288.8,38,206,38S56,105.2,56,188"/>
			</defs>
			<clipPath id="SVGID_12_">
				<use xlink:href="#SVGID_11_"  style="overflow:visible;"/>
			</clipPath>
			<path class="st12" d="M162.1,172.8l-0.6,0.3c-0.1-0.1-0.1-0.2-0.2-0.4c-0.7-1.2-1.6-2.2-2.6-3c-0.7-0.5-1.4-1-2.1-1.4
				c-0.5-0.3-1-0.5-1.5-0.7c-1.1-0.4-2.4-0.7-3.6-0.7l-0.5,0c-0.4,0-0.8,0-1.2,0.1c-1.2,0.1-2.4,0.6-3.5,1.2c-0.1,0-0.1,0.1-0.1,0.1
				l0,0c-0.4,0.3-0.8,0.6-1.2,0.9c-0.2,0.1-0.3,0.3-0.5,0.5c-0.1,0.1-0.3,0.3-0.4,0.4c-0.1,0.1-0.2,0.2-0.2,0.3
				c-0.1,0.1-0.1,0.1-0.2,0.2l0,0c-1.4,1.8-2.2,4-2.8,6.3l-0.1,0.2l-0.2,0l-2.7-0.2v-0.1l2.5-0.2c0.1-0.8,0.3-1.7,0.6-2.5
				c0-0.1,0.1-0.2,0.1-0.3c-0.4-0.4-0.8-0.7-1.2-0.9c-0.5-0.3-1.1-0.5-1.7-0.4c0.6-0.2,1.2-0.1,1.8,0.1c0.4,0.1,0.9,0.4,1.3,0.6
				c0.1-0.2,0.1-0.4,0.2-0.6s0.2-0.4,0.3-0.6c0,0,0,0,0,0c-0.3-0.3-0.7-0.6-1-0.8c-0.5-0.3-1.1-0.5-1.7-0.4c0.6-0.2,1.2-0.1,1.8,0.1
				c0.4,0.1,0.8,0.3,1.2,0.6c0.3-0.6,0.6-1.1,1-1.7c-0.3-0.3-0.6-0.6-0.9-0.9c-0.3-0.2-0.6-0.5-0.9-0.6c-0.3-0.2-0.7-0.3-1.1-0.3
				c0.4-0.1,0.8,0,1.2,0.1c0.4,0.1,0.7,0.3,1.1,0.5c0.4,0.2,0.7,0.5,1,0.7c0.2-0.3,0.4-0.5,0.7-0.8c-0.1-0.3-0.3-0.7-0.5-1
				c-0.2-0.3-0.4-0.6-0.7-0.9s-0.6-0.5-1-0.6c0.4,0,0.8,0.2,1.1,0.5c0.3,0.2,0.6,0.5,0.9,0.8c0.2,0.3,0.4,0.5,0.6,0.8
				c0.4-0.3,0.8-0.6,1.2-0.9c0-0.3-0.1-0.6-0.1-0.9c-0.1-0.3-0.1-0.6-0.3-0.9c-0.1-0.3-0.2-0.6-0.5-0.8c0.3,0.1,0.5,0.4,0.7,0.7
				c0.2,0.3,0.3,0.6,0.4,0.9c0.1,0.2,0.2,0.5,0.3,0.7c0.4-0.2,0.8-0.4,1.2-0.6c0-0.5,0-1-0.1-1.5c-0.1-0.6-0.4-1.1-0.8-1.5
				c0.5,0.3,0.9,0.8,1.1,1.4c0.2,0.4,0.3,0.9,0.4,1.4c0.4-0.1,0.8-0.3,1.2-0.3c0-0.5,0-1-0.1-1.5c-0.1-0.6-0.4-1.1-0.8-1.5
				c0.5,0.3,0.9,0.8,1.1,1.4c0.2,0.5,0.3,1,0.4,1.5c0.4-0.1,0.8-0.1,1.2-0.1c0-0.2,0-0.4-0.1-0.6c-0.1-0.6-0.3-1.3-0.8-1.7
				c0.6,0.3,0.9,1,1.1,1.6c0.1,0.2,0.1,0.4,0.2,0.6c2,0,4,0.5,5.8,1.4c0.1,0,0.1,0.1,0.2,0.1C159.5,168.8,161,170.4,162.1,172.8"/>
			<path class="st12" d="M209.4,169.2l0.6,0.3l0.2-0.4c0.6-1.2,1.4-2.3,2.4-3.2c0.6-0.6,1.3-1.1,2.1-1.5c0.5-0.3,1-0.6,1.5-0.8
				c1.1-0.5,2.3-0.8,3.5-0.9l0.5,0c0.4,0,0.8,0,1.2,0c1.2,0.1,2.4,0.4,3.5,1c0.1,0,0.1,0,0.2,0.1l0,0c0.5,0.2,0.9,0.5,1.3,0.8
				c0.2,0.1,0.4,0.3,0.5,0.4c0.1,0.1,0.3,0.3,0.4,0.4c0.1,0.1,0.2,0.2,0.2,0.2c0.1,0.1,0.1,0.1,0.2,0.2l0,0c1.5,1.7,2.4,3.9,3.1,6.1
				l0.1,0.2l0.2,0l2.7-0.3l0-0.1l-2.5-0.1c-0.2-0.8-0.4-1.6-0.7-2.4c0-0.1-0.1-0.2-0.1-0.3c0.3-0.4,0.7-0.7,1.1-1
				c0.5-0.3,1-0.6,1.6-0.5c-0.6-0.2-1.2,0-1.8,0.2c-0.4,0.2-0.8,0.4-1.2,0.7c-0.1-0.2-0.2-0.4-0.3-0.6c-0.1-0.2-0.2-0.4-0.3-0.6
				c0,0,0,0,0,0c0.3-0.3,0.6-0.6,1-0.8c0.5-0.3,1-0.6,1.6-0.5c-0.6-0.2-1.2,0-1.8,0.2c-0.4,0.2-0.8,0.4-1.1,0.6
				c-0.3-0.6-0.7-1.1-1.1-1.6c0.3-0.3,0.5-0.6,0.8-0.9c0.3-0.3,0.6-0.5,0.9-0.7c0.3-0.2,0.7-0.4,1.1-0.3c-0.4-0.1-0.8,0-1.2,0.2
				c-0.4,0.2-0.7,0.3-1.1,0.6c-0.4,0.2-0.7,0.5-1,0.8c-0.2-0.3-0.5-0.5-0.7-0.8c0.1-0.3,0.3-0.7,0.4-1c0.2-0.3,0.4-0.7,0.6-0.9
				c0.3-0.3,0.5-0.6,0.9-0.6c-0.4,0-0.8,0.3-1.1,0.5c-0.3,0.3-0.6,0.6-0.8,0.9c-0.2,0.3-0.4,0.5-0.5,0.8c-0.4-0.3-0.8-0.6-1.2-0.8
				c0-0.3,0-0.6,0.1-0.9c0-0.3,0.1-0.6,0.2-1c0.1-0.3,0.2-0.6,0.5-0.8c-0.3,0.1-0.5,0.5-0.6,0.7c-0.1,0.3-0.3,0.6-0.4,0.9
				c-0.1,0.2-0.1,0.5-0.2,0.7c-0.4-0.2-0.8-0.4-1.2-0.5c-0.1-0.5-0.1-1,0-1.5c0.1-0.6,0.3-1.1,0.7-1.6c-0.5,0.3-0.8,0.9-1.1,1.5
				c-0.2,0.4-0.3,0.9-0.3,1.4c-0.4-0.1-0.8-0.2-1.2-0.3c-0.1-0.5-0.1-1,0-1.5c0.1-0.6,0.3-1.1,0.7-1.6c-0.5,0.3-0.8,0.9-1.1,1.5
				c-0.2,0.5-0.3,1-0.3,1.5c-0.4,0-0.8-0.1-1.2-0.1c0-0.2,0-0.4,0-0.6c0.1-0.6,0.2-1.3,0.7-1.7c-0.5,0.4-0.8,1-1,1.6
				c-0.1,0.2-0.1,0.4-0.1,0.7c-2,0.1-4,0.7-5.7,1.7c-0.1,0-0.1,0.1-0.2,0.1C211.9,165.1,210.5,166.8,209.4,169.2"/>
			<path class="st12" d="M141.7,172c-0.1,0.2-0.2,0.4-0.3,0.6C141.5,172.4,141.6,172.2,141.7,172C141.7,172,141.7,172,141.7,172"/>
		</g>
		<rect x="26" y="8" class="st7" width="360" height="360"/>
		<rect class="st7" width="360" height="360"/>
	</g>
	<g>
		<path class="st13" d="M344.1,190.3l-1.4-1.6c-7.1-8.2-18-10.5-28.6-12.6c-1.6-0.3-3.3-0.7-4.9-1c2.4,1.7,5.3,4,6.2,4.6l1.5,1.2h-2
			c-1.8,0-4.6-1.9-6.9-3.8c0.3,0.5,0.5,1.1,0.8,1.6c12,24.3,25.7,51.7,15.7,78.1c-2.8,7.5-7.9,14.2-14.6,19.6l-1.3,1l0.2-1.6
			c0.6-5.3-1.1-10.3-4.3-13.5c-0.4,2.2-0.5,4.7-0.5,7.1c-0.1,5.4-0.2,11-4.9,13.8l-0.3,0.2l-0.3-0.2c-3.3-1.6-5-2.9-5.1-3.7
			c-0.1-0.3,0-0.6,0.2-0.8c1.4-1.4,1.8-3,1.2-4.9c-1.7-5.5-11-11.5-18.1-13.3c3.1,18.3-0.4,30.8-9.9,36.1l-1.1,0.6l0.1-1.9
			c0.7-8.9,1.6-21.1-8.4-24.9c-9.5-4-19.6-5.6-29.5-7.2c-6.6-1.1-13.5-2.2-20.1-4v-15.5c14.2-7.9,23.6-10.3,23.8-10.4
			c17.1-7.9,29.6-22.5,30-34.9c6.7-0.2,11.7-3.3,13.9-8.8c3-7.3,0.9-17.9-4.8-23.5c-3.1-3.1-6.9-4.1-10.6-2.9
			c-4.1-41.3-13.5-49.4-35.3-58.9l-0.4-0.2l-0.3,0.3c-13.8,11.3-20,21.6-25,30c-5.9,9.8-9.8,16.2-21.9,18.4c-3.2,1-9.9,1.3-12.3,1.3
			c1.1-3.8,1.1-7.2,1.1-7.4v-1.2l-1,0.6c-7.6,4.3-18,3.3-21.4,2.8c3.7-5.2,6.1-11.1,6.2-11.4l1.2-3.1l-2.3,2.3
			c-6.7,6.7-18.4,13.1-22,10.7l-1-0.6l-1.4,27.6c-3.1,0.9-5.4,2.5-6.9,4.9c0,0,0,0,0,0.1c-0.4,0.7-0.8,1.4-1.1,2.2
			c-0.5-3.3-0.5-7.1-0.5-11c0-8.5-0.1-17.3-4.9-21.7c-2.5-2.3-6.2-3.2-11.2-2.8c-0.1,0-0.2,0-0.3,0l-4.7,0.4l4.3-1.7
			c2.4-1.5,5.1-2.7,7.7-3.8c4.3-1.9,8.8-3.8,12-7.3c-8.4,3.4-19.3,4.7-25.9,0.5c-4.2-2.6-6.3-7-6.3-13l0-1.2l1,0.6
			c13.6,8.3,22.9-6.6,29.6-17.5c0.7-1.1,1.3-2.2,2-3.1c10.4-16.1,27.6-26.9,47.3-29.7c9.7-1.4,20-0.4,33.3,3.1c3.1,0.8,6.4,2,9.5,3
			c8.3,2.9,16.8,5.8,25.2,4.1c10.5-2.1,20.1,0.5,30.4,8.3c7.1,5.3,13.5,12.5,20.2,22.5c3.2,4.7,6,9.8,8.7,14.7
			c3.4,6.1,6.8,12.4,11,18c4.8,6.4,11.8,8.3,19.2,10.3c2.8,0.8,5.6,1.5,8.3,2.6l2.9,1.1l-21.1,1.4c1.5,0.9,3.1,1.8,4.7,2.7
			c10.9,6.1,23.3,13.1,24.7,26.3L344.1,190.3z"/>
		<g>
			<path class="st14" d="M153.9,124.6c0-0.1,0.4-0.7,1.1-1.7c0.7-1,1.9-2.2,3.7-3.6c1.8-1.3,4.3-2.7,7.3-3.8c3-1.1,6.4-1.9,10-2.1
				c7.4-0.7,15.8,0.2,22.5,1c3.4,0.4,6.3,0.7,8.3,0.9c2.1,0.2,3.3,0.3,3.3,0.3l-6.9,4.3c-5.8-1.1-11.1-2.1-16-2.8
				c-2.5-0.3-4.8-0.6-7.1-0.7c-2.3-0.1-4.5-0.2-6.5-0.1c-4.1,0.2-8.1,1.1-11.5,2.5C158.5,120.3,155.8,122.2,153.9,124.6"/>
			<path class="st14" d="M165.3,109.4c0.2-0.1,2.8-1,6.7-1.7c3.9-0.7,9.3-0.9,14.9-0.6c5.6,0.3,11.3,1,15.7,1.5
				c4.4,0.5,7.4,0.8,7.4,0.8l-4.3,2.7c-7.4-1.3-14.3-2.8-21-3.5c-3.3-0.4-6.6-0.5-9.9-0.5C171.5,108.3,168.3,108.6,165.3,109.4"/>
			<path class="st14" d="M140.2,118.4c0-0.1,0.2-0.5,0.6-1.1c0.3-0.6,0.8-1.4,1.5-2.3c1.3-1.9,3.4-4.4,6.3-6.7
				c2.9-2.3,6.6-4.6,10.8-6.2c4.2-1.7,8.9-2.9,13.6-3.4c9.4-1.1,18.8-0.1,25.6,0.6c6.8,0.8,11.3,1.3,11.3,1.3l-6.6,4.3
				c-5.6-1-11.2-2.1-16.8-2.8c-5.6-0.6-11.2-1-16.8-0.3c-5.6,0.7-11.2,2.1-16.3,4.8C148.1,109.2,143.4,113.2,140.2,118.4"/>
			<path class="st14" d="M160,94.4c0.3-0.1,3.8-1.4,9-2.3c5.3-0.9,11.9-1.2,18.2-0.8c6.3,0.3,12.3,1,16.6,1.5
				c4.3,0.5,7.1,0.8,7.1,0.8c-1.4,0.9-2.7,1.9-4.2,2.8c-7.1-1.3-14.5-2.8-22.3-3.5c-3.9-0.4-7.9-0.5-12-0.3
				C168.4,92.7,164.2,93.3,160,94.4"/>
			<path class="st14" d="M127.5,107.2c0.1-0.2,0.4-0.7,1-1.6c0.3-0.4,0.7-0.9,1.1-1.5c0.4-0.5,0.9-1.2,1.5-1.9
				c2.2-2.7,5.6-6.1,10-9.1c4.4-3,9.6-5.8,15.3-7.7c2.8-1,5.8-1.7,8.8-2.4c3-0.6,6.2-1,9-1.2c5.8-0.4,11.3-0.3,16.1,0
				c4.8,0.3,9.1,0.8,12.5,1.2c3.3,0.4,6.1,0.7,8,0.9c1.8,0.2,2.9,0.3,2.9,0.3c-2,1.5-4.1,2.9-6.3,4.4c-5.5-1-11.3-2.2-17.6-3
				c-6.3-0.8-12.9-1.3-20.2-0.7c-7.3,0.7-14.7,2.3-22,5.8c-3.6,1.7-7.3,3.9-10.7,6.6C133.5,100,130.2,103.3,127.5,107.2"/>
			<path class="st14" d="M314.4,243c-0.3-0.2-2.6-3-5.8-7.2c-3.2-4.2-7-9.9-10.5-15.8c-3.5-5.9-6.5-12-8.6-16.6
				c-2.1-4.6-3.3-7.8-3.3-7.8c2.1,0.8,4.2,1.6,6.3,2.3C297.5,213.7,304.9,228.9,314.4,243"/>
			<path class="st14" d="M297.7,230.9c-0.3-0.3-5.4-8-9.5-16.1c-2.1-4-4-8.1-5.3-11.2c-1.3-3.1-2.1-5.2-2.1-5.2
				c1.4,0.5,2.7,1.1,4.1,1.6C288.1,210.6,292.4,221,297.7,230.9"/>
			<path class="st14" d="M303.7,253.6c-0.3-0.3-2.9-3.2-6.3-7.8c-3.5-4.5-7.7-10.7-11.5-17.1c-3.8-6.4-7.2-12.9-9.4-18
				c-2.3-5-3.6-8.4-3.6-8.4c2.1,0.9,4.3,1.8,6.4,2.6C284.9,222,293.1,238.5,303.7,253.6"/>
			<path class="st14" d="M284.6,239.9c-0.3-0.4-5.9-8.7-10.4-17.4c-2.3-4.4-4.3-8.8-5.8-12.2c-1.4-3.4-2.3-5.6-2.3-5.6
				c1.4,0.6,2.8,1.2,4.2,1.8C274,217.9,278.8,229.1,284.6,239.9"/>
			<path class="st14" d="M299,161.5c-0.2-0.2-1.1-1.2-2.5-2.8c-1.4-1.6-3.4-3.9-5.8-6.6c-2.2-2.6-4.5-5.3-6.3-8.1
				c-1.7-2.6-3.3-6.2-5.3-10.6c-4.1-9.1-9-17.8-12.9-24.1c-4-6.3-6.9-10.3-6.9-10.3c2.7,0.8,5.3,1.7,7.9,2.7
				c3.2,5.5,6.2,11.1,8.8,16.9c1.3,2.9,2.6,5.8,3.8,8.7c0.6,1.5,1.2,2.9,1.7,4.4l1.5,4c1.9,5.2,3,8,6,12.2c1.4,2,3,4.2,4.8,6.6
				L299,161.5z"/>
			<path class="st14" d="M275.9,146.1c-0.2-0.2-1.6-2.5-3.4-6.5c-0.9-2-2-4.5-3.3-7.1c-1.3-2.6-2.7-5.4-4.1-8.2
				c-2.9-5.5-6.1-10.7-8.7-14.6c-2.5-3.9-4.3-6.3-4.3-6.3c1.7,0.5,3.3,1,5,1.6c4,6.7,7.5,13.7,10.7,20.8c1.5,3.5,3,7.2,4.3,10.7
				C273.4,140,274.5,143.2,275.9,146.1"/>
			<path class="st14" d="M286.1,172.6c-0.4-0.3-3.6-4-8.4-9.4c-2.4-2.7-5.1-5.9-7.7-9.7c-2.6-3.8-4.7-8.2-6.6-12.4
				c-3.7-8.5-8.1-16.5-11.8-22.4c-1.8-2.9-3.4-5.3-4.5-7c-1.1-1.6-1.8-2.6-1.8-2.6c2.5,0.7,5.1,1.5,7.6,2.4
				c2.9,5.1,5.6,10.4,7.9,15.7c2.4,5.3,4.4,10.8,6.4,16.2c1,2.7,2.2,5.3,3.6,7.9c1.4,2.5,3,5,4.7,7.3
				C279.1,163.4,282.6,168,286.1,172.6"/>
		</g>
	</g>
</g>
</svg>
