<!-- Generator: Adobe Illustrator 22.0.0, SVG Export Plug-In  -->
<svg version="1.1"
	 xmlns="http://www.w3.org/2000/svg" xmlns:xlink="http://www.w3.org/1999/xlink" xmlns:a="http://ns.adobe.com/AdobeSVGViewerExtensions/3.0/"
	 x="0px" y="0px" width="126.8px" height="41.5px" viewBox="0 0 126.8 41.5" style="enable-background:new 0 0 126.8 41.5;"
	 xml:space="preserve">
<style type="text/css">
	.st0{opacity:0.5;}
	.st1{fill:#CC0099;}
</style>
<defs>
</defs>
<g class="st0">
	<path class="st1" d="M20.9,19.2c0.8,1.1,1.4,2.4,1.8,3.7c0.4,1.3,0.6,2.6,0.6,4c0,1.9-0.4,3.6-1.1,5.2c-0.7,1.6-1.7,3-2.9,4.3
		c-1.2,1.2-2.7,2.2-4.3,2.9c-1.6,0.7-3.4,1.1-5.2,1.1H1.2c-0.3,0-0.6-0.1-0.8-0.3C0.1,39.7,0,39.4,0,39.1v-9.6l8.1-8v10.8h1.8
		c0.8,0,1.5-0.1,2.1-0.4c0.7-0.3,1.2-0.7,1.7-1.2c0.5-0.5,0.9-1.1,1.2-1.7c0.3-0.7,0.4-1.4,0.4-2.1c0-0.8-0.1-1.5-0.4-2.1
		c-0.3-0.7-0.7-1.2-1.2-1.7c-0.5-0.5-1.1-0.9-1.7-1.2c-0.7-0.3-1.4-0.4-2.1-0.4H8.1H0V1.6C0,1.3,0.1,1,0.3,0.8
		c0.2-0.2,0.5-0.4,0.8-0.4h8.7c1.4,0,2.8,0.3,4.1,0.8c1.3,0.6,2.4,1.3,3.4,2.3c1,1,1.7,2.1,2.3,3.4c0.6,1.3,0.8,2.6,0.8,4.1
		c0,2.1-0.6,4-1.7,5.7C19.5,17.4,20.3,18.2,20.9,19.2z M11.6,12.7c0.5-0.5,0.7-1.1,0.7-1.8s-0.2-1.3-0.7-1.8
		c-0.5-0.5-1.1-0.7-1.7-0.7H8.1v5h1.8C10.6,13.4,11.2,13.2,11.6,12.7z"/>
	<path class="st1" d="M60.6,14.9c0.4,1.7,0.6,3.5,0.6,5.4c0,2.8-0.5,5.4-1.4,7.9c-0.9,2.5-2.2,4.6-3.8,6.5c-1.6,1.8-3.5,3.3-5.7,4.4
		c-2.2,1.1-4.5,1.6-6.9,1.6c-2.5,0-4.8-0.5-6.9-1.6c-2.2-1.1-4.1-2.5-5.7-4.4c-1.6-1.8-2.9-4-3.8-6.5c-0.9-2.5-1.4-5.1-1.4-7.9
		c0-2.8,0.5-5.4,1.4-7.9c0.9-2.5,2.2-4.6,3.8-6.5c1.6-1.8,3.5-3.3,5.7-4.4C38.6,0.5,40.9,0,43.4,0c2.5,0,4.8,0.6,7.1,1.7v8.4h8.3
		C59.6,11.6,60.2,13.2,60.6,14.9z M43.4,32.7c1.3,0,2.6-0.3,3.8-1c1.2-0.7,2.2-1.5,3.1-2.7c0.9-1.1,1.6-2.4,2.1-3.9
		c0.5-1.5,0.8-3.1,0.8-4.8c0-1.7-0.3-3.3-0.8-4.8c-0.5-1.5-1.2-2.8-2.1-3.9c-0.9-1.1-1.9-2-3.1-2.6c-1.2-0.7-2.5-1-3.8-1
		c-1.3,0-2.6,0.3-3.8,1c-1.2,0.7-2.2,1.5-3.1,2.6c-0.9,1.1-1.6,2.4-2.1,3.9c-0.5,1.5-0.8,3.1-0.8,4.8c0,1.7,0.3,3.3,0.8,4.8
		c0.5,1.5,1.2,2.8,2.1,3.9s1.9,2,3.1,2.7C40.8,32.4,42.1,32.7,43.4,32.7z"/>
	<path class="st1" d="M98.4,14.9c0.4,1.7,0.6,3.5,0.6,5.4c0,2.8-0.5,5.4-1.4,7.9c-0.9,2.5-2.2,4.6-3.8,6.5c-1.6,1.8-3.5,3.3-5.7,4.4
		c-2.2,1.1-4.5,1.6-6.9,1.6c-2.5,0-4.8-0.5-6.9-1.6c-2.2-1.1-4.1-2.5-5.7-4.4c-1.6-1.8-2.9-4-3.8-6.5c-0.9-2.5-1.4-5.1-1.4-7.9
		c0-2.8,0.5-5.4,1.4-7.9C65.7,10,67,7.8,68.6,6c1.6-1.8,3.5-3.3,5.7-4.4C76.4,0.5,78.8,0,81.2,0c2.5,0,4.8,0.6,7.1,1.7v8.4h8.3
		C97.4,11.6,98,13.2,98.4,14.9z M81.2,32.7c1.3,0,2.6-0.3,3.8-1c1.2-0.7,2.2-1.5,3.1-2.7c0.9-1.1,1.6-2.4,2.1-3.9
		c0.5-1.5,0.8-3.1,0.8-4.8c0-1.7-0.3-3.3-0.8-4.8c-0.5-1.5-1.2-2.8-2.1-3.9c-0.9-1.1-1.9-2-3.1-2.6c-1.2-0.7-2.5-1-3.8-1
		c-1.3,0-2.6,0.3-3.8,1c-1.2,0.7-2.2,1.5-3.1,2.6c-0.9,1.1-1.6,2.4-2.1,3.9c-0.5,1.5-0.8,3.1-0.8,4.8c0,1.7,0.3,3.3,0.8,4.8
		c0.5,1.5,1.2,2.8,2.1,3.9s1.9,2,3.1,2.7C78.6,32.4,79.9,32.7,81.2,32.7z"/>
	<path class="st1" d="M126.8,40.3c0,0.3-0.1,0.6-0.3,0.8c-0.2,0.2-0.5,0.3-0.8,0.3H119c-0.5,0-0.8-0.2-1-0.6l-8.7-14.7v14.2
		c0,0.3-0.1,0.6-0.3,0.8c-0.2,0.2-0.5,0.3-0.8,0.3h-5.7c-0.3,0-0.6-0.1-0.8-0.3c-0.2-0.2-0.3-0.5-0.3-0.8v-4l5.9-5.9l-5.9-5.9V2.8
		c0-0.3,0.1-0.6,0.3-0.8c0.2-0.2,0.5-0.3,0.8-0.3h5.7c0.3,0,0.6,0.1,0.8,0.3c0.2,0.2,0.3,0.5,0.3,0.8v8.7l7.3-9.5
		c0.2-0.3,0.5-0.4,0.9-0.4h7.2c0.5,0,0.8,0.2,1.1,0.6c0.1,0.2,0.1,0.4,0.1,0.7c0,0.2-0.1,0.4-0.2,0.6l-11.6,14.9l12.5,21.2
		C126.7,39.9,126.8,40.1,126.8,40.3z"/>
</g>
</svg>
