<!-- Generator: Adobe Illustrator 22.0.0, SVG Export Plug-In  -->
<svg version="1.1"
	 xmlns="http://www.w3.org/2000/svg" xmlns:xlink="http://www.w3.org/1999/xlink" xmlns:a="http://ns.adobe.com/AdobeSVGViewerExtensions/3.0/"
	 x="0px" y="0px" width="159.3px" height="45.9px" viewBox="0 0 159.3 45.9" style="enable-background:new 0 0 159.3 45.9;"
	 xml:space="preserve">
<style type="text/css">
	.st0{opacity:0.5;}
	.st1{fill:#CC0099;}
</style>
<defs>
</defs>
<g class="st0">
	<path class="st1" d="M22.8,4.4c0.2,0.2,0.3,0.5,0.3,0.9v21.1h-15v16.4c0,0.3-0.1,0.6-0.3,0.8c-0.2,0.2-0.5,0.3-0.8,0.3H1.2
		c-0.3,0-0.6-0.1-0.8-0.3C0.1,43.3,0,43.1,0,42.7V5.2c0-0.3,0.1-0.6,0.3-0.9C0.6,4.1,0.9,4,1.2,4h5.7c0.3,0,0.6,0.1,0.8,0.4
		C8,4.6,8.1,4.9,8.1,5.3v13.1h7V5.3c0-0.3,0.1-0.6,0.3-0.9S15.9,4,16.2,4H22C22.3,4,22.6,4.1,22.8,4.4z M15,34.4l8.1-8v16.4
		c0,0.3-0.1,0.6-0.3,0.8c-0.2,0.2-0.5,0.3-0.8,0.3h-5.7c-0.3,0-0.6-0.1-0.8-0.3c-0.2-0.2-0.3-0.5-0.3-0.8V34.4z"/>
	<path class="st1" d="M33.4,12.1v5.4h8.9c0.3,0,0.6,0.1,0.8,0.3c0.2,0.2,0.3,0.5,0.3,0.8v5.7c0,0.3-0.1,0.6-0.3,0.8
		c-0.2,0.2-0.5,0.3-0.8,0.3h-8.9v2.4l-8.1,8V5.2c0-0.3,0.1-0.6,0.3-0.9C25.9,4.1,26.1,4,26.5,4h19.1c0.3,0,0.6,0.1,0.8,0.4
		c0.2,0.2,0.3,0.5,0.3,0.9v5.6c0,0.3-0.1,0.6-0.3,0.8c-0.2,0.2-0.5,0.3-0.8,0.3H33.4z M25.6,43.6c-0.2-0.2-0.3-0.5-0.3-0.8v-6.9
		h20.3c0.3,0,0.6,0.1,0.8,0.3c0.2,0.2,0.3,0.5,0.3,0.8v5.7c0,0.3-0.1,0.6-0.3,0.8c-0.2,0.2-0.5,0.3-0.8,0.3H26.5
		C26.1,43.9,25.9,43.8,25.6,43.6z"/>
	<path class="st1" d="M57,27.8l-8.1,8V5.2c0-0.3,0.1-0.6,0.3-0.9C49.5,4.1,49.8,4,50.1,4h5.7c0.3,0,0.6,0.1,0.8,0.4
		C56.9,4.6,57,4.9,57,5.2V27.8z M70,36.2c0.2,0.2,0.3,0.5,0.3,0.8v5.7c0,0.3-0.1,0.6-0.3,0.8c-0.2,0.2-0.5,0.3-0.8,0.3H50.1
		c-0.3,0-0.6-0.1-0.8-0.3c-0.2-0.2-0.3-0.5-0.3-0.8v-6.9h20.3C69.5,35.9,69.8,36,70,36.2z"/>
	<path class="st1" d="M80.6,27.8l-8.1,8V5.2c0-0.3,0.1-0.6,0.3-0.9C73.1,4.1,73.4,4,73.7,4h5.7c0.3,0,0.6,0.1,0.8,0.4
		c0.2,0.2,0.3,0.5,0.3,0.9V27.8z M93.6,36.2c0.2,0.2,0.3,0.5,0.3,0.8v5.7c0,0.3-0.1,0.6-0.3,0.8c-0.2,0.2-0.5,0.3-0.8,0.3H73.7
		c-0.3,0-0.6-0.1-0.8-0.3c-0.2-0.2-0.3-0.5-0.3-0.8v-6.9h20.3C93.1,35.9,93.4,36,93.6,36.2z"/>
	<path class="st1" d="M131.2,18.6c0.4,1.7,0.6,3.5,0.6,5.4c0,2.8-0.5,5.4-1.4,7.9c-0.9,2.5-2.2,4.6-3.8,6.5
		c-1.6,1.8-3.5,3.3-5.7,4.4c-2.2,1.1-4.5,1.6-6.9,1.6c-2.5,0-4.8-0.5-6.9-1.6c-2.2-1.1-4.1-2.5-5.7-4.4c-1.6-1.8-2.9-4-3.8-6.5
		c-0.9-2.5-1.4-5.1-1.4-7.9c0-2.8,0.5-5.4,1.4-7.9c0.9-2.5,2.2-4.6,3.8-6.5c1.6-1.8,3.5-3.3,5.7-4.4c2.2-1.1,4.5-1.6,6.9-1.6
		c2.5,0,4.8,0.6,7.1,1.7v8.4h8.3C130.2,15.3,130.8,16.9,131.2,18.6z M114,36.3c1.3,0,2.6-0.3,3.8-1c1.2-0.7,2.2-1.5,3.1-2.7
		c0.9-1.1,1.6-2.4,2.1-3.9c0.5-1.5,0.8-3.1,0.8-4.8c0-1.7-0.3-3.3-0.8-4.8c-0.5-1.5-1.2-2.8-2.1-3.9c-0.9-1.1-1.9-2-3.1-2.6
		c-1.2-0.7-2.5-1-3.8-1c-1.3,0-2.6,0.3-3.8,1c-1.2,0.7-2.2,1.5-3.1,2.6c-0.9,1.1-1.6,2.4-2.1,3.9c-0.5,1.5-0.8,3.1-0.8,4.8
		c0,1.7,0.3,3.3,0.8,4.8c0.5,1.5,1.2,2.8,2.1,3.9s1.9,2,3.1,2.7C111.4,36,112.7,36.3,114,36.3z"/>
	<path class="st1" d="M146.7,0c1.7,0,3.4,0.3,4.9,1c1.5,0.7,2.8,1.6,4,2.7c1.1,1.1,2,2.5,2.7,4c0.7,1.5,1,3.1,1,4.9
		c0,1.4-0.2,2.7-0.7,3.9c-0.4,1.2-1,2.4-1.8,3.5l-6.3,9.2v3.6c0,0.4-0.1,0.7-0.4,0.9c-0.3,0.3-0.6,0.4-1,0.4h-6.3
		c-0.4,0-0.7-0.1-0.9-0.4c-0.3-0.3-0.4-0.6-0.4-0.9v-1.1c0-0.8,0-1.5,0-2c0-0.5,0-0.9,0-1.1s0-0.5,0-0.7c0-0.7,0.1-1.3,0.4-1.8
		c0.2-0.5,0.4-0.8,0.5-1l7.2-10.6c0.4-0.6,0.6-1.3,0.6-1.9c0-1-0.4-1.9-1.1-2.6c-0.7-0.7-1.6-1.1-2.6-1.1c-0.9,0-1.7,0.3-2.3,0.9
		c-0.7,0.6-1.1,1.3-1.2,2.2l-0.3,1.8c-0.1,0.3-0.2,0.6-0.5,0.8c-0.2,0.2-0.5,0.3-0.8,0.3h-6.2c-0.4,0-0.7-0.1-1-0.4
		c-0.3-0.3-0.3-0.6-0.3-1l0.3-2.5c0-0.3,0.1-0.5,0.1-0.7c0-0.2,0.1-0.4,0.2-0.6h9.3V0.3C144.8,0.1,145.7,0,146.7,0z M150,36.4
		c0.2,0.3,0.4,0.6,0.4,0.9v7.2c0,0.4-0.1,0.7-0.4,0.9c-0.2,0.3-0.5,0.4-0.9,0.4h-6.3c-0.4,0-0.7-0.1-0.9-0.4
		c-0.3-0.3-0.4-0.6-0.4-0.9v-7.2c0-0.4,0.1-0.7,0.4-0.9c0.3-0.3,0.6-0.4,0.9-0.4h6.3C149.5,36,149.8,36.2,150,36.4z"/>
</g>
</svg>
