<!-- Generator: Adobe Illustrator 22.0.0, SVG Export Plug-In  -->
<svg version="1.1"
	 xmlns="http://www.w3.org/2000/svg" xmlns:xlink="http://www.w3.org/1999/xlink" xmlns:a="http://ns.adobe.com/AdobeSVGViewerExtensions/3.0/"
	 x="0px" y="0px" width="224.5px" height="296.7px" viewBox="0 0 224.5 296.7" style="enable-background:new 0 0 224.5 296.7;"
	 xml:space="preserve">
<style type="text/css">
	.st0{fill:#742A8F;}
	.st1{fill:#FFFFFF;}
</style>
<defs>
</defs>
<path class="st0" d="M224.5,177.7l-4-7.1l-7.4-13.2l6.7-13.6l3.6-7.3l-8,1.6l-14.9,3l-10.9-10.6l-5.8-5.6l-1,8l-0.4,3.5
	c-1-1.1-2-2.1-3-3.2c-1.4-0.9-2.1-1.9-3.2-2.9c-4.4-3.7-9-6.6-14.3-9.2c-5.3-2.6-11.4-4.5-17.2-6.4c-2.9-0.9-5.9-1.8-9-2.5
	c-3.1-0.8-6.4-1.5-9.6-2.3c-6.4-1.6-13-3.2-19.3-5.2c-3.1-1-5.8-2.4-8.7-3.7c-2.9-1.3-5.5-2.3-8.5-3.9C87.5,96,84,94.2,82,93
	c-2.6-1.6-5.2-2.8-7.4-4.5c-1.5-1.1-1.7-2.8,0-4c18.6-12.9,39.2-25.8,57.8-38.1c3.1-2.1,4.9-4.2,5.8-6.6c2-5,0.2-10.1-0.5-12.2
	c-0.7-2.1-2.2-5.3-7.2-10.5c-2.6-2.7-8.2-8.5-16-12.4c-15-7.4-35-6.2-50.1,3.5c-3.5,2.2-11.1,7.6-16.7,17.4c-7,12.3-8.4,27.2-4.2,42
	c0.5,1.9,1.3,3.6,2.1,5.3c0.5,1,1,1.9,1.6,2.9c0.7,1.2,1.4,2.4,2.2,3.6c3.1,4.5,6.8,8,11,11.3c0.6,0.5,1.3,1.1,2,1.6
	c1.1,0.8,2.3,1.7,3.6,2.3c1.3,0.6,2.7,1.3,4,1.9c2.7,1.2,5.3,2.3,8.2,3.3c2.9,1.1,6,1.7,9,2.4c3,0.7,6.1,1.2,9.2,2
	c3.1,0.7,6.2,1.6,9.4,2.2c6.3,1.3,13.1,3.2,19.1,5.2c6,2,11.4,4.1,16.6,7.1c2.6,1.5,4.9,2.9,7.2,4.4c2.4,1.5,4.7,3.1,6.8,4.6
	c2.7,2,5.7,3.9,7.9,6.2c1.3,1.3,1.2,3.2-1.1,3.8c-48.8,12.3-99.8,24.6-148.1,36.5c-12.5,3.1-15,13.1-14.2,21.5
	c3.6,37.6,20.1,63,48.4,83c50.4,35.7,117.5,14.7,147.1-33.7c14.3-23.5,16.8-47.8,9.9-70.2l11,1.6L224.5,177.7z M92.3,30
	c1.5,1.6,3.1,1.8,5.4,1.8h0.5c-0.2,0-0.3-0.1-0.4-0.1c-1.4-0.5-2.7-1.3-3.4-2.7c-1.1-2.1-0.3-5.2,0.2-4c0.9,2.1,2.4,3,4.6,4
	c1.2-1.5,3.1-2.5,5.2-2.5c3.8,0,6.8,3.1,6.7,6.9c-0.1,3.4-2.8,6.2-6.2,6.5c-3.5,0.3-6.4-2.1-7.1-5.3c-1.5,0.2-3,0-4.2-1.1
	C91.8,32.2,91.5,29.2,92.3,30z"/>
<g>
	<path class="st1" d="M112.8,176.4c14.9-0.4,16.7-0.4,22.6-0.2c5.5,0.1,8.4,0.9,10.4,1.7c2.6,0.9,4.5,2.1,6.5,4
		c2,1.9,3.3,3.7,4.3,6.3c0.8,2,1.8,4.9,2.2,10.3c0.4,5.9,0.5,7.7,0.9,22.6c0.4,14.9,0.4,16.7,0.2,22.6c-0.1,5.5-0.9,8.4-1.7,10.4
		c-0.9,2.6-2.1,4.5-4,6.5c-1.9,2-3.7,3.3-6.3,4.3c-2,0.8-4.9,1.8-10.3,2.2c-5.9,0.4-7.7,0.5-22.6,0.9c-14.9,0.4-16.7,0.4-22.6,0.2
		c-5.5-0.1-8.4-0.9-10.4-1.7c-2.6-0.9-4.5-2.1-6.5-4c-2-1.9-3.3-3.7-4.3-6.3c-0.8-2-1.8-4.9-2.2-10.3c-0.4-5.9-0.5-7.7-0.9-22.6
		c-0.4-14.9-0.4-16.7-0.2-22.6c0.1-5.5,0.9-8.4,1.7-10.4c0.9-2.6,2.1-4.5,4-6.5c1.9-2,3.7-3.3,6.3-4.3c2-0.8,4.9-1.8,10.3-2.2
		C96,176.9,97.8,176.8,112.8,176.4 M112.5,166.3c-15.2,0.4-17.1,0.5-23.1,0.9c-5.9,0.4-10,1.5-13.5,2.9c-3.6,1.5-6.7,3.5-9.7,6.7
		c-3,3.2-4.9,6.4-6.2,10.1c-1.3,3.6-2.1,7.7-2.3,13.6c-0.1,6-0.1,7.9,0.2,23.1c0.4,15.2,0.5,17.1,0.9,23.1c0.4,5.9,1.5,10,2.9,13.5
		c1.5,3.6,3.5,6.7,6.7,9.7c3.2,3,6.4,4.9,10.1,6.2c3.6,1.3,7.7,2.1,13.6,2.3c6,0.1,7.9,0.1,23.1-0.2c15.2-0.4,17.1-0.5,23.1-0.9
		c5.9-0.4,10-1.5,13.5-2.9c3.6-1.5,6.7-3.5,9.7-6.7c3-3.2,4.9-6.4,6.2-10.1c1.3-3.6,2.1-7.7,2.3-13.6c0.1-6,0.1-7.9-0.2-23.1
		c-0.4-15.2-0.5-17.1-0.9-23.1c-0.4-5.9-1.5-10-2.9-13.5c-1.5-3.6-3.5-6.7-6.7-9.7c-3.2-3-6.4-4.9-10.1-6.2
		c-3.6-1.3-7.7-2.1-13.6-2.3C129.6,166,127.7,166,112.5,166.3"/>
	<path class="st1" d="M113.2,193.6c-15.9,0.4-28.4,13.6-28,29.5c0.4,15.9,13.6,28.4,29.5,28c15.9-0.4,28.4-13.6,28-29.5
		C142.2,205.7,129.1,193.2,113.2,193.6 M114.4,240.9c-10.3,0.3-18.9-7.9-19.1-18.2s7.9-18.9,18.2-19.1c10.3-0.3,18.9,7.9,19.1,18.2
		C132.8,232.1,124.7,240.7,114.4,240.9"/>
	<path class="st1" d="M149.7,191.5c0.1,3.7-2.8,6.8-6.5,6.9c-3.7,0.1-6.8-2.8-6.9-6.5c-0.1-3.7,2.8-6.8,6.5-6.9
		C146.6,184.9,149.6,187.8,149.7,191.5"/>
</g>
</svg>
