<!-- Generator: Adobe Illustrator 22.0.0, SVG Export Plug-In  -->
<svg version="1.1"
	 xmlns="http://www.w3.org/2000/svg" xmlns:xlink="http://www.w3.org/1999/xlink" xmlns:a="http://ns.adobe.com/AdobeSVGViewerExtensions/3.0/"
	 x="0px" y="0px" width="70px" height="47px" viewBox="0 0 70 47" style="enable-background:new 0 0 70 47;" xml:space="preserve">
<style type="text/css">
	.st0{fill:#CC0099;}
</style>
<defs>
</defs>
<g>
	<path class="st0" d="M67,12H3c-1.7,0-3-1.3-3-3V3c0-1.7,1.3-3,3-3h64c1.7,0,3,1.3,3,3v6C70,10.7,68.7,12,67,12z"/>
</g>
<g>
	<path class="st0" d="M67,29.5H3c-1.7,0-3-1.3-3-3v-6c0-1.7,1.3-3,3-3h64c1.7,0,3,1.3,3,3v6C70,28.2,68.7,29.5,67,29.5z"/>
</g>
<g>
	<path class="st0" d="M67,47H3c-1.7,0-3-1.3-3-3v-6c0-1.7,1.3-3,3-3h64c1.7,0,3,1.3,3,3v6C70,45.7,68.7,47,67,47z"/>
</g>
</svg>
