<!-- Generator: Adobe Illustrator 22.0.0, SVG Export Plug-In  -->
<svg version="1.1"
	 xmlns="http://www.w3.org/2000/svg" xmlns:xlink="http://www.w3.org/1999/xlink" xmlns:a="http://ns.adobe.com/AdobeSVGViewerExtensions/3.0/"
	 x="0px" y="0px" width="137.1px" height="41.6px" viewBox="0 0 137.1 41.6" style="enable-background:new 0 0 137.1 41.6;"
	 xml:space="preserve">
<style type="text/css">
	.st0{opacity:0.5;}
	.st1{fill:#CC0099;}
</style>
<defs>
</defs>
<g class="st0">
	<path class="st1" d="M23.3,22.6c1,1.8,1.5,3.9,1.5,6.1c0,1.7-0.3,3.3-1,4.8c-0.6,1.5-1.5,2.8-2.6,3.9c-1.1,1.1-2.4,2-3.9,2.6
		c-1.5,0.7-3.1,1-4.8,1c-1.4,0-2.7-0.2-3.9-0.7c-1.3-0.4-2.4-1-3.4-1.8c-1-0.8-1.9-1.7-2.7-2.8c-0.8-1.1-1.3-2.3-1.7-3.6L0,29.4
		c-0.1-0.4,0-0.7,0.2-1c0.2-0.3,0.5-0.5,0.9-0.5h5.9c0.6,0,0.9,0.3,1.1,0.8l0.5,1.4c0.3,0.8,0.8,1.5,1.5,2c0.7,0.5,1.5,0.8,2.4,0.8
		c1.1,0,2.1-0.4,2.9-1.2c0.8-0.8,1.2-1.8,1.2-3c0-0.8-0.2-1.4-0.5-1.9c-0.3-0.5-0.7-0.9-1-1.2l-1.6-8.2l-8.2,1.6
		c-1.2-1-2.1-2.2-2.8-3.6c-0.7-1.4-1-2.9-1-4.6c0-1.5,0.3-2.9,0.8-4.1C3.2,5.3,4,4.1,4.9,3.1c1-1,2.1-1.8,3.4-2.3
		C9.6,0.3,11,0,12.4,0c1.3,0,2.6,0.2,3.8,0.7c1.2,0.5,2.3,1.1,3.2,2c0.9,0.8,1.7,1.8,2.4,3c0.6,1.1,1,2.4,1.2,3.7l0.3,2.4
		c0.1,0.4,0,0.7-0.3,0.9c-0.3,0.3-0.6,0.4-0.9,0.4h-5.7c-0.3,0-0.5-0.1-0.8-0.3c-0.2-0.2-0.3-0.4-0.4-0.7L15,10.2
		c-0.1-0.6-0.4-1.1-0.9-1.6c-0.5-0.4-1-0.6-1.7-0.6c-0.7,0-1.3,0.2-1.8,0.7c-0.5,0.5-0.8,1.2-0.8,1.9c0,0.5,0.1,0.9,0.3,1.2
		c0.2,0.3,0.4,0.6,0.6,0.7c0.2,0.1,0.5,0.3,1,0.7c0.5,0.4,1.2,0.8,2,1.3c0.8,0.5,1.6,1.1,2.5,1.7c0.9,0.6,1.8,1.2,2.7,1.8h0
		C20.9,19.2,22.3,20.7,23.3,22.6z"/>
	<path class="st1" d="M52.7,40.4c0,0.3-0.1,0.6-0.3,0.8c-0.2,0.2-0.5,0.3-0.8,0.3h-6.6c-0.5,0-0.8-0.2-1-0.6l-8.7-14.7v14.2
		c0,0.3-0.1,0.6-0.3,0.8c-0.2,0.2-0.5,0.3-0.8,0.3h-5.7c-0.3,0-0.6-0.1-0.8-0.3C27.2,41,27,40.8,27,40.4v-4l5.9-5.9L27,24.6V2.9
		c0-0.3,0.1-0.6,0.3-0.8c0.2-0.2,0.5-0.3,0.8-0.3h5.7c0.3,0,0.6,0.1,0.8,0.3c0.2,0.2,0.3,0.5,0.3,0.8v8.7l7.3-9.5
		c0.2-0.3,0.5-0.4,0.9-0.4h7.2c0.5,0,0.8,0.2,1.1,0.6c0.1,0.2,0.1,0.4,0.1,0.7c0,0.2-0.1,0.4-0.2,0.6L39.9,18.6l12.5,21.2
		C52.6,40,52.7,40.2,52.7,40.4z"/>
	<path class="st1" d="M62.9,32.3v6.9c0,0.3-0.1,0.6-0.4,0.8c-0.2,0.2-0.5,0.3-0.9,0.3H56c-0.3,0-0.6-0.1-0.8-0.3
		c-0.2-0.2-0.3-0.5-0.3-0.8V1.7c0-0.3,0.1-0.6,0.3-0.9c0.2-0.2,0.5-0.4,0.8-0.4h5.7c0.3,0,0.6,0.1,0.9,0.4s0.4,0.5,0.4,0.9v18.8
		l-5.9,5.9L62.9,32.3z"/>
	<path class="st1" d="M73.1,24.3l-8.1,8V1.7c0-0.3,0.1-0.6,0.3-0.9c0.2-0.2,0.5-0.4,0.8-0.4h5.7c0.3,0,0.6,0.1,0.8,0.4
		c0.2,0.2,0.3,0.5,0.3,0.9V24.3z M86.1,32.7c0.2,0.2,0.3,0.5,0.3,0.8v5.7c0,0.3-0.1,0.6-0.3,0.8c-0.2,0.2-0.5,0.3-0.8,0.3H66.2
		c-0.3,0-0.6-0.1-0.8-0.3c-0.2-0.2-0.3-0.5-0.3-0.8v-6.9h20.3C85.6,32.3,85.9,32.5,86.1,32.7z"/>
	<path class="st1" d="M96.7,24.3l-8.1,8V1.7c0-0.3,0.1-0.6,0.3-0.9c0.2-0.2,0.5-0.4,0.8-0.4h5.7c0.3,0,0.6,0.1,0.8,0.4
		c0.2,0.2,0.3,0.5,0.3,0.9V24.3z M109.8,32.7c0.2,0.2,0.3,0.5,0.3,0.8v5.7c0,0.3-0.1,0.6-0.3,0.8c-0.2,0.2-0.5,0.3-0.8,0.3H89.8
		c-0.3,0-0.6-0.1-0.8-0.3c-0.2-0.2-0.3-0.5-0.3-0.8v-6.9h20.3C109.2,32.3,109.5,32.5,109.8,32.7z"/>
	<path class="st1" d="M135.6,22.6c1,1.8,1.5,3.9,1.5,6.1c0,1.7-0.3,3.3-1,4.8c-0.6,1.5-1.5,2.8-2.6,3.9c-1.1,1.1-2.4,2-3.9,2.6
		c-1.5,0.7-3.1,1-4.8,1c-1.4,0-2.7-0.2-3.9-0.7c-1.3-0.4-2.4-1-3.4-1.8c-1-0.8-1.9-1.7-2.7-2.8c-0.8-1.1-1.3-2.3-1.7-3.6l-0.8-2.6
		c-0.1-0.4,0-0.7,0.2-1c0.2-0.3,0.5-0.5,0.9-0.5h5.9c0.6,0,0.9,0.3,1.1,0.8l0.5,1.4c0.3,0.8,0.8,1.5,1.5,2c0.7,0.5,1.5,0.8,2.4,0.8
		c1.1,0,2.1-0.4,2.9-1.2c0.8-0.8,1.2-1.8,1.2-3c0-0.8-0.2-1.4-0.5-1.9c-0.3-0.5-0.7-0.9-1-1.2l-1.6-8.2l-8.2,1.6
		c-1.2-1-2.1-2.2-2.8-3.6c-0.7-1.4-1-2.9-1-4.6c0-1.5,0.3-2.9,0.8-4.1c0.6-1.3,1.3-2.4,2.3-3.4c1-1,2.1-1.8,3.4-2.3
		c1.3-0.6,2.7-0.8,4.1-0.8c1.3,0,2.6,0.2,3.8,0.7c1.2,0.5,2.3,1.1,3.2,2c0.9,0.8,1.7,1.8,2.4,3c0.6,1.1,1,2.4,1.2,3.7l0.3,2.4
		c0.1,0.4,0,0.7-0.3,0.9c-0.3,0.3-0.6,0.4-0.9,0.4h-5.7c-0.3,0-0.5-0.1-0.8-0.3c-0.2-0.2-0.3-0.4-0.4-0.7l-0.3-1.8
		c-0.1-0.6-0.4-1.1-0.9-1.6c-0.5-0.4-1-0.6-1.7-0.6c-0.7,0-1.3,0.2-1.8,0.7c-0.5,0.5-0.8,1.2-0.8,1.9c0,0.5,0.1,0.9,0.3,1.2
		c0.2,0.3,0.4,0.6,0.6,0.7c0.2,0.1,0.5,0.3,1,0.7c0.5,0.4,1.2,0.8,2,1.3c0.8,0.5,1.6,1.1,2.5,1.7c0.9,0.6,1.8,1.2,2.7,1.8h0
		C133.2,19.2,134.6,20.7,135.6,22.6z"/>
</g>
</svg>
